# File created by Blade
# Date/Time:  Tue Apr 07 20:35:32 2015
# Frame Rate: 120.000 fps
#------------------------------------------------------
:FULLY-SPECIFIED
:DEGREES
1774
root 3.203267 34.080201 -4.179993 57.941542 -7.209801 -27.074810
Spine -27.989986 8.875575 6.022247
Head -13.883046 4.549181 12.523609
LeftShoulder -23.938002 40.816469 17.373594
LeftArm 61.353619 -52.842780 -77.974801
LeftForeArm 5.863483 -0.000000 14.924434
LeftHand 12.164029 -0.000000 13.593155
LeftHandThumb1 -26.253704 0.000000 33.147579
RightShoulder -5.562812 -8.082182 -21.897269
RightArm 5.250291 -14.555307 65.336355
RightForeArm 18.851610 0.000000 18.445002
RightHand 5.907425 -0.000000 6.842480
RightHandThumb1 -24.326973 -0.000000 -32.862282
LeftUpLeg -50.269305 14.194960 17.273863
LeftLeg 0.548174 -0.000000 -0.000000
LeftFoot -2.984153 20.797795 -3.655097
LeftToeBase -8.002322 -0.000000 0.000000
RightUpLeg 10.109132 -9.270755 -16.522241
RightLeg 26.724785 -0.000000 -0.000000
RightFoot 42.283944 -12.172262 -4.201919
RightToeBase 31.229497 -0.000000 -0.000000
1775
root 3.196494 34.074475 -4.186189 57.909132 -7.154792 -26.970591
Spine -27.956317 8.792536 5.998891
Head -14.007205 4.567452 12.626284
LeftShoulder -23.911314 40.828672 17.410480
LeftArm 61.546082 -52.896047 -78.117542
LeftForeArm 5.921541 -0.000000 14.960308
LeftHand 12.144829 0.000000 13.454561
LeftHandThumb1 -26.253704 0.000000 33.147579
RightShoulder -5.615563 -8.071856 -21.780975
RightArm 5.191957 -14.260459 65.349608
RightForeArm 18.664743 -0.000000 18.441655
RightHand 6.037433 -0.000000 6.592618
RightHandThumb1 -24.326973 -0.000000 -32.862282
LeftUpLeg -50.358148 13.913241 17.467120
LeftLeg 0.778565 -0.000000 -0.000000
LeftFoot -3.021825 21.037915 -3.388996
LeftToeBase -8.062884 -0.000000 0.000000
RightUpLeg 10.040144 -9.261915 -16.439439
RightLeg 26.599995 -0.000000 -0.000000
RightFoot 42.248081 -12.199487 -4.182470
RightToeBase 31.146629 -0.000000 -0.000000
1776
root 3.197363 34.069830 -4.194510 57.887268 -7.141595 -26.801266
Spine -27.916346 8.720341 5.897815
Head -14.214489 4.530417 12.675517
LeftShoulder -23.855912 40.798323 17.438343
LeftArm 61.692715 -52.952797 -78.197615
LeftForeArm 5.949117 -0.000000 15.017181
LeftHand 12.135526 0.000000 13.644741
LeftHandThumb1 -26.253704 0.000000 33.147579
RightShoulder -5.713371 -8.031209 -21.686438
RightArm 5.079513 -13.913131 65.420093
RightForeArm 18.375092 -0.000000 18.531463
RightHand 6.099794 -0.000000 6.486036
RightHandThumb1 -24.326973 -0.000000 -32.862282
LeftUpLeg -50.447938 13.554081 17.672485
LeftLeg 0.982762 -0.000000 -0.000000
LeftFoot -2.936985 21.195879 -3.228435
LeftToeBase -8.465579 -0.000000 0.000000
RightUpLeg 9.946525 -9.357853 -16.471056
RightLeg 26.546914 -0.000000 -0.000000
RightFoot 42.159276 -12.157220 -4.176803
RightToeBase 31.202412 -0.000000 -0.000000
1777
root 3.194120 34.065070 -4.202877 57.806098 -7.104983 -26.658986
Spine -27.803001 8.646704 5.848990
Head -14.424598 4.508610 12.714193
LeftShoulder -23.810284 40.792681 17.462649
LeftArm 61.811686 -52.990526 -78.258203
LeftForeArm 5.937738 -0.000000 15.095628
LeftHand 12.150592 -0.000000 13.582704
LeftHandThumb1 -26.253704 0.000000 33.147579
RightShoulder -5.783870 -8.042528 -21.605057
RightArm 4.982307 -13.466047 65.520907
RightForeArm 18.129185 -0.000000 18.715919
RightHand 5.865094 0.000000 6.924399
RightHandThumb1 -24.326973 -0.000000 -32.862282
LeftUpLeg -50.468358 13.209234 17.861693
LeftLeg 1.128166 -0.000000 -0.000000
LeftFoot -2.882564 21.460119 -2.954900
LeftToeBase -8.614529 -0.000000 0.000000
RightUpLeg 9.925742 -9.433689 -16.473727
RightLeg 26.507803 -0.000000 -0.000000
RightFoot 42.079977 -12.141579 -4.195802
RightToeBase 31.230049 -0.000000 -0.000000
1778
root 3.188372 34.062340 -4.211578 57.717935 -7.048215 -26.546595
Spine -27.677057 8.609155 5.834498
Head -14.623298 4.484176 12.727770
LeftShoulder -23.728998 40.773430 17.534053
LeftArm 61.919845 -53.018296 -78.368390
LeftForeArm 6.032973 -0.000000 15.181339
LeftHand 12.127872 0.000000 13.565606
LeftHandThumb1 -26.253704 0.000000 33.147579
RightShoulder -5.860344 -8.076916 -21.511942
RightArm 4.867127 -12.973768 65.618820
RightForeArm 17.767748 0.000000 19.003988
RightHand 5.835793 -0.000000 6.896360
RightHandThumb1 -24.326973 -0.000000 -32.862282
LeftUpLeg -50.424008 12.811187 18.162334
LeftLeg 1.209615 -0.000000 -0.000000
LeftFoot -2.808835 21.849665 -2.716373
LeftToeBase -8.663645 -0.000000 0.000000
RightUpLeg 9.910749 -9.491010 -16.434555
RightLeg 26.521175 -0.000000 -0.000000
RightFoot 41.953944 -12.216301 -4.182247
RightToeBase 31.292291 -0.000000 -0.000000
1779
root 3.183978 34.059831 -4.219085 57.631877 -7.027697 -26.466571
Spine -27.554923 8.613068 5.826889
Head -14.772690 4.438909 12.694429
LeftShoulder -23.671353 40.776202 17.573568
LeftArm 62.013119 -53.023372 -78.418853
LeftForeArm 6.047669 -0.000000 15.233489
LeftHand 12.087379 -0.000000 13.738760
LeftHandThumb1 -26.253704 0.000000 33.147579
RightShoulder -5.912182 -8.099669 -21.441377
RightArm 4.731730 -12.500813 65.734054
RightForeArm 17.342931 -0.000000 19.334209
RightHand 6.018893 0.000000 6.640791
RightHandThumb1 -24.326973 -0.000000 -32.862282
LeftUpLeg -50.359555 12.552200 18.328092
LeftLeg 1.232863 -0.000000 -0.000000
LeftFoot -2.708467 22.128514 -2.448346
LeftToeBase -8.769828 -0.000000 0.000000
RightUpLeg 9.881074 -9.536669 -16.419827
RightLeg 26.596176 -0.000000 -0.000000
RightFoot 41.869312 -12.259707 -4.214179
RightToeBase 31.295947 -0.000000 -0.000000
1780
root 3.181069 34.057741 -4.226133 57.547020 -7.028839 -26.405920
Spine -27.426246 8.661229 5.818472
Head -14.913427 4.412275 12.635951
LeftShoulder -23.613250 40.774791 17.624257
LeftArm 62.121079 -53.009226 -78.486775
LeftForeArm 6.065506 -0.000000 15.257885
LeftHand 12.128527 -0.000000 13.779192
LeftHandThumb1 -26.253704 0.000000 33.147579
RightShoulder -5.984095 -8.070637 -21.402767
RightArm 4.569668 -12.068465 65.874334
RightForeArm 17.240682 -0.000000 19.681014
RightHand 5.834784 -0.000000 6.843698
RightHandThumb1 -24.326973 -0.000000 -32.862282
LeftUpLeg -50.278786 12.372122 18.420651
LeftLeg 1.222633 -0.000000 -0.000000
LeftFoot -2.732945 22.326170 -2.370176
LeftToeBase -8.746895 -0.000000 0.000000
RightUpLeg 9.816017 -9.611685 -16.435629
RightLeg 26.795692 -0.000000 -0.000000
RightFoot 41.780451 -12.282962 -4.295549
RightToeBase 31.377838 -0.000000 -0.000000
